<svg xmlns="http://www.w3.org/2000/svg" viewBox="27 -36 353 372">
  <path d="M203.5 287.3c-75.7 0-137.3-61.6-137.3-137.3S127.8 12.7 203.5 12.7 340.8 74.3 340.8 150s-61.6 137.3-137.3 137.3zm0-245.2C144 42.1 95.6 90.5 95.6 150S144 257.9 203.5 257.9 311.4 209.5 311.4 150 263 42.1 203.5 42.1z" fill="#f7f7f7" opacity=".3"/>
  <path d="M237.2 147.9l-32.6-69.2c-.4-.9-1.7-.9-2.2 0L169.7 148c-.3.6-.4 1.3-.4 2h68.4c0-.7-.2-1.4-.5-2.1z" fill="#f67e64"/>
  <path d="M237.2 152l-32.6 69.2c-.4.9-1.7.9-2.2 0l-32.7-69.3c-.3-.6-.4-1.3-.4-2h68.4c0 .8-.2 1.5-.5 2.1z" fill="#fcfcfc"/>
  <path d="M128.8 52.7c-63.9 49.5-63.9 145.1 0 194.6 43.5 33.8 105.9 33.8 149.5 0 63.9-49.5 63.9-145.1 0-194.6-43.6-33.8-106-33.8-149.5 0zM237.2 152l-32.6 69.2c-.4.9-1.7.9-2.2 0l-32.7-69.3c-.6-1.3-.6-2.7 0-4l32.7-69.3c.4-.9 1.7-.9 2.2 0l32.6 69.2c.6 1.4.6 2.9 0 4.2zm-26.8 4.9c4.2-4.2 4.2-9.7 0-13.9s-9.7-4.2-13.9 0c-4.2 4.2-4.2 9.7 0 13.9 4.2 4.2 9.8 4.2 13.9 0z"/>
</svg>
